<svg width="113" height="142" viewBox="0 0 113 142" xmlns="http://www.w3.org/2000/svg"><path d="M23 62h55v10H23V62zm5 10h45v5H28v-5zm5 5h35v5H33v-5zm50 35h5v5h-5v-5z" fill="#E8E8E8" fill-opacity=".75"/><path d="M33 127h5v5h-5v-5zm5 0h5v5h-5v-5zm5 0h5v5h-5v-5zm5-5h5v5h-5v-5zm5 0h5v5h-5v-5zm5 5h5v5h-5v-5zm5 0h5v5h-5v-5zm10 0h5v5h-5v-5zm0-5h5v5h-5v-5zm0-5h5v5h-5v-5zm0-5h5v5h-5v-5zm0-5h5v5h-5v-5zm0-5h5v5h-5v-5zm0-5h5v5h-5v-5zm0-5h5v5h-5v-5zm0-5h5v5h-5v-5zm-40 35h5v5h-5v-5zm0-5h5v5h-5v-5zm0-5h5v5h-5v-5zm0-5h5v5h-5v-5zm0-5h5v5h-5v-5zm0-5h5v5h-5v-5zm0-5h5v5h-5v-5zm0-5h5v5h-5v-5zm45 30h5v5h-5v-5zm0-30h5v5h-5v-5zm0-10h5v5h-5v-5zm5 0h5v5h-5v-5zm0-5h5v5h-5v-5zm0-5h5v5h-5v-5zm5-5h5v5h-5v-5zm0-5h5v5h-5v-5zM8 52h5v5H8v-5zm90-5h5v5h-5v-5zM8 47h5v5H8v-5zm5 0h5v5h-5v-5zm5 0h5v5h-5v-5zm5 0h5v5h-5v-5zm5 0h5v5h-5v-5zm5 0h5v5h-5v-5zm5 0h5v5h-5v-5zm5 0h5v5h-5v-5zm5 0h5v5h-5v-5zm5 0h5v5h-5v-5zm5 0h5v5h-5v-5zm5 0h5v5h-5v-5zm5 0h5v5h-5v-5zm5 0h5v5h-5v-5zm5 0h5v5h-5v-5zm5 0h5v5h-5v-5zm5 0h5v5h-5v-5zm5 0h5v5h-5v-5zm-75-5h5v5h-5v-5zm0-5h5v5h-5v-5zm0-5h5v5h-5v-5zm0-5h5v5h-5v-5zm70 15h5v5h-5v-5zm0-5h5v5h-5v-5zm0-5h5v5h-5v-5zm0-5h5v5h-5v-5zm-5-5h5v5h-5v-5zm0-5h5v5h-5v-5zm-60 5h5v5h-5v-5zm0-5h5v5h-5v-5zm5-5h5v5h-5v-5zm5 0h5v5h-5v-5zm5 0h5v5h-5v-5zm5 0h5v5h-5v-5zm5 0h5v5h-5v-5zM28 42h5v5h-5v-5zm5-5h5v5h-5v-5zm5 5h5v5h-5v-5zm25 0h5v5h-5v-5zm5-5h5v5h-5v-5zm5 5h5v5h-5v-5zM53 12h5v5h-5v-5zm5 0h5v5h-5v-5zm5 0h5v5h-5v-5zm5 0h5v5h-5v-5zm5 0h5v5h-5v-5zm5 0h5v5h-5v-5zm20 40h5v5h-5v-5zm-5 0h5v5h-5v-5zM18 72h5v5h-5v-5zm0-5h5v5h-5v-5zm0-5h5v5h-5v-5zm0-5h5v5h-5v-5zm15 5h5v5h-5v-5zm35 0h5v5h-5v-5zm20-10h5v5h-5v-5zm-5 0h5v5h-5v-5zm-5 0h5v5h-5v-5zm-5 0h5v5h-5v-5zm-5 0h5v5h-5v-5zm-5 0h5v5h-5v-5zm-5 0h5v5h-5v-5zm-5 0h5v5h-5v-5zm-5 0h5v5h-5v-5zm-5 0h5v5h-5v-5zm-5 0h5v5h-5v-5zm-5 0h5v5h-5v-5zm-5 0h5v5h-5v-5zm-5 0h5v5h-5v-5zm-5 0h5v5h-5v-5zm-5 0h5v5h-5v-5zm70 40h5v5h-5v-5zm0 5h5v5h-5v-5zm0 5h5v5h-5v-5zm0 15h5v5h-5v-5zm5-10h5v5h-5v-5zm0 5h5v5h-5v-5zm-60 5h5v5h-5v-5zm-5-5h5v5h-5v-5zm0-5h5v5h-5v-5zm0-5h5v5h-5v-5zm0-5h5v5h-5v-5zm0-5h5v5h-5v-5zm0-5h5v5h-5v-5zm5-5h5v5h-5v-5zm5 0h5v5h-5v-5zm5 0h5v5h-5v-5zm5 0h5v5h-5v-5zm5 0h5v5h-5v-5zm5 0h5v5h-5v-5zm5 0h5v5h-5v-5zm5 0h5v5h-5v-5zm5 0h5v5h-5v-5zm5 0h5v5h-5v-5zm-45-5h5v5h-5v-5zm-5 0h5v5h-5v-5zm0-5h5v5h-5v-5zm45 55h5v5h-5v-5z" fill="#282828"/><path d="M28 17h5v5h-5v-5zm0 5h5v5h-5v-5zm5-5h5v5h-5v-5zm5 0h5v5h-5v-5zm5 0h5v5h-5v-5zm5 0h5v5h-5v-5zm5 0h5v5h-5v-5zm5 0h5v5h-5v-5zm5 0h5v5h-5v-5zm5 0h5v5h-5v-5zm5 0h5v5h-5v-5zm5 0h5v5h-5v-5zm-45 5h5v5h-5v-5zm5 0h5v5h-5v-5zm5 0h5v5h-5v-5zm5 0h5v5h-5v-5zm5 0h5v5h-5v-5zm5 0h5v5h-5v-5zm5 0h5v5h-5v-5zm5 0h5v5h-5v-5zm5 0h5v5h-5v-5zm5 0h5v5h-5v-5zm-55 5h5v5h-5v-5zm5 0h5v5h-5v-5zm5 0h5v5h-5v-5zm5 0h5v5h-5v-5zm5 0h5v5h-5v-5zm5 0h5v5h-5v-5zm5 0h5v5h-5v-5zm5 0h5v5h-5v-5zm5 0h5v5h-5v-5zm5 0h5v5h-5v-5zm5 0h5v5h-5v-5zm5 0h5v5h-5v-5zm-55 5h5v5h-5v-5zm5 0h5v5h-5v-5zm5 0h5v5h-5v-5zm5 0h5v5h-5v-5zm5 0h5v5h-5v-5zm5 0h5v5h-5v-5zm5 0h5v5h-5v-5zm5 0h5v5h-5v-5zm5 0h5v5h-5v-5zm5 0h5v5h-5v-5zm5 0h5v5h-5v-5zm5 0h5v5h-5v-5zm5 0h5v5h-5v-5zm0-5h5v5h-5v-5zM73 37h5v5h-5v-5zm5 0h5v5h-5v-5zm5 0h5v5h-5v-5zm-5 5h5v5h-5v-5zm5 0h5v5h-5v-5zm-45-5h5v5h-5v-5zm5 0h5v5h-5v-5zm5 0h5v5h-5v-5zm5 0h5v5h-5v-5zm5 0h5v5h-5v-5zm5 0h5v5h-5v-5zm-20 5h5v5h-5v-5zm5 0h5v5h-5v-5zm5 0h5v5h-5v-5zm5 0h5v5h-5v-5zm-35-5h5v5h-5v-5zm5 0h5v5h-5v-5zm-5 5h5v5h-5v-5z" fill="#CECDCD" fill-opacity=".75"/><path d="M28 32h5v5h-5v-5zm5-5h5v5h-5v-5zm5 5h5v5h-5v-5zm0 5h5v5h-5v-5zm-5-5h5v5h-5v-5zm30 5h5v5h-5v-5zm10 0h5v5h-5v-5zm-10-5h5v5h-5v-5zm5 0h5v5h-5v-5zm0-5h5v5h-5v-5zm5 5h5v5h-5v-5zm-45 5h5v5h-5v-5z" fill="#fff" fill-opacity=".75"/><path d="M38 112h35v10H38v-10zm0 10h10v5H38v-5zm20 0h15v5H58v-5z" fill="#848484"/><path d="M43 87h20v25H43V87z" fill="#E4E4E4"/><path d="M48 89h5v5h-5v-5zm-5-2h5v5h-5v-5zm0 5h5v4h-5v-4zm10 0h5v4h-5v-4zm0-5h5v5h-5v-5z" fill="#686868"/><path d="M38 87h5v25h-5V87zm25 0h10v25H63V87zm-35 0h5v25h-5V87zm50 5h5v20h-5V92zm5 15h5v5h-5v-5z" fill="#515151"/><path d="M43 67h20v5H43v-5zm-5 5h10v5H38v-5zm20 0h10v5H58v-5z"/><path d="M48 72h10v5H48v-5z" fill="#FFE4CB" fill-opacity=".75"/><path d="M23 57h65v5H23v-5zm55 5h10v5H78v-5zm0 5h5v5h-5v-5zm0 5h5v5h-5v-5zm-5 0h5v5h-5v-5zm0 5h5v5h-5v-5zm-5 0h5v5h-5v-5zm10 35h5v5h-5v-5zm-50 0h5v5h-5v-5zm25-40h5v5h-5v-5zm-5 0h5v5h-5v-5z" fill="#CDCDCD" fill-opacity=".75"/><path d="M68 42h5v5h-5v-5zm-35 0h5v5h-5v-5zm30 25h10l-5 5h-5v-5zm10 0h5v5h-5v-5zm0-10h5v5h-5v-5zm-10 0h5l5 5H63v-5zm0 5h10v5H63v-5z" fill="#A3A3A3" fill-opacity=".75"/><path d="M73 67v5h-5l5-5zm0-5h5v5h-5v-5zm-5-5h5v5l-5-5z" fill="#A3A3A3" fill-opacity=".75"/><path d="M28 87h5v25h-5V87zm50 5h5v20h-5V92zm-10-5h5v25h-5V87zm-5 0h5v5h-5v-5zm-25 0h5v5h-5v-5z" fill="#373737"/><path d="M68 112h5v15h-5v-15zm-25 10h5v5h-5v-5z" fill="#606060"/><path d="M43 87h20v5H43v-5z" fill="#616161"/><path fill="#E4E3E3" fill-opacity=".75" d="M73 37h5v5h-5z"/><path d="M78 27h10v20H78V27zm0-5h5v5h-5v-5zm-5 0h5v5h-5v-5zm-5 0h5v5h-5v-5zm5 5h5v5h-5v-5zm-10-5h5v5h-5v-5zm-20-5h40v5H43v-5z" fill="#AEADAF" fill-opacity=".75"/></svg>